<?xml version="1.0" encoding="UTF-8"?>
<svg id="Layer_2" data-name="Layer 2" xmlns="http://www.w3.org/2000/svg" viewBox="0 0 60 60">
  <defs>
    <style>
      .cls-1 {
        fill: #fff;
      }

      .cls-1, .cls-2 {
        stroke: #e21d38;
      }

      .cls-2 {
        fill: none;
        stroke-linecap: round;
        stroke-linejoin: round;
      }
    </style>
  </defs>
  <g id="Layer_1-2" data-name="Layer 1">
    <circle class="cls-1" cx="30" cy="30" r="29.5"/>
    <g>
      <path class="cls-2" d="M44.76,17.19c.72,0,1.3.57,1.3,1.27v23.07c0,.7-.58,1.27-1.3,1.27H15.23c-.72,0-1.3-.57-1.3-1.27v-23.07c0-.7.58-1.27,1.3-1.27h29.53Z"/>
      <path class="cls-2" d="M13.93,21.76h32.13"/>
      <path class="cls-2" d="M17.65,29.18h10.25v7.68c0,1.18-.98,2.14-2.18,2.14h-5.88c-1.2,0-2.18-.96-2.18-2.14v-7.68Z"/>
      <path class="cls-2" d="M20.09,31.2v-3.14c0-1.48,1.22-2.67,2.73-2.67s2.73,1.19,2.73,2.67v3.07"/>
      <path class="cls-2" d="M32.6,27.38h10.22"/>
      <path class="cls-2" d="M30.64,27.38h1.23"/>
      <path class="cls-2" d="M32.6,30.63h10.22"/>
      <path class="cls-2" d="M30.64,30.63h1.23"/>
      <path class="cls-2" d="M32.6,33.88h10.22"/>
      <path class="cls-2" d="M30.64,33.88h1.23"/>
      <path class="cls-2" d="M32.6,37.13h10.22"/>
      <path class="cls-2" d="M30.64,37.13h1.23"/>
      <path class="cls-2" d="M28.33,19.49h15.05"/>
      <path class="cls-2" d="M18.46,19.49c0,.37-.3.66-.68.66s-.68-.3-.68-.66.3-.66.68-.66.68.3.68.66Z"/>
      <path class="cls-2" d="M21.37,19.49c0,.37-.3.66-.68.66s-.68-.3-.68-.66.3-.66.68-.66.68.3.68.66Z"/>
      <path class="cls-2" d="M24.27,19.49c0,.37-.3.66-.68.66s-.68-.3-.68-.66.3-.66.68-.66.68.3.68.66Z"/>
    </g>
  </g>
</svg>