<?xml version="1.0" encoding="UTF-8"?>
<svg id="Layer_2" data-name="Layer 2" xmlns="http://www.w3.org/2000/svg" viewBox="0 0 60 60">
  <defs>
    <style>
      .cls-1 {
        fill: #fff;
      }

      .cls-1, .cls-2 {
        stroke: #e21d38;
      }

      .cls-2 {
        fill: none;
        stroke-linecap: round;
        stroke-linejoin: round;
      }
    </style>
  </defs>
  <g id="Layer_1-2" data-name="Layer 1">
    <circle class="cls-1" cx="30" cy="30" r="29.5"/>
    <g>
      <path class="cls-2" d="M14.81,45.08v-24.42l2.1-5.79h26.01l2.19,6.07s.18,24.14,0,24.14h-3.43v-24.96h-23.77v24.95h-3.1Z"/>
      <path class="cls-2" d="M17.91,22.39h23.76"/>
      <path class="cls-2" d="M17.91,24.38h23.76"/>
      <path class="cls-2" d="M19.89,35.79h19.94v6.13h-19.94v-6.13Z"/>
      <path class="cls-2" d="M23.02,35.79l1.1-8.48h11.47l1.12,8.48"/>
      <path class="cls-2" d="M25.76,29.42l-.53,4.12,9.39.08-.6-4.2h-8.26Z"/>
      <path class="cls-2" d="M23.17,41.92v3.2s3.62.02,3.63,0c0-.02,0-3.2,0-3.2"/>
      <path class="cls-2" d="M32.98,41.92v3.2s3.62.02,3.63,0c0-.02,0-3.2,0-3.2"/>
      <path class="cls-2" d="M25.23,38.76c0,.61-.5,1.11-1.11,1.11s-1.11-.49-1.11-1.11.5-1.11,1.11-1.11,1.11.49,1.11,1.11Z"/>
      <path class="cls-2" d="M36.7,38.76c0,.61-.5,1.11-1.11,1.11s-1.11-.49-1.11-1.11.5-1.11,1.11-1.11,1.11.49,1.11,1.11Z"/>
      <path class="cls-2" d="M26.72,37.72h6.26"/>
      <path class="cls-2" d="M26.72,39.87h6.26"/>
      <path class="cls-2" d="M19.43,33.58h1.68v2.21"/>
      <path class="cls-2" d="M40.28,33.58h-1.68v2.21"/>
    </g>
  </g>
</svg>