<?xml version="1.0" encoding="UTF-8"?>
<svg id="Layer_2" data-name="Layer 2" xmlns="http://www.w3.org/2000/svg" viewBox="0 0 60 60">
  <defs>
    <style>
      .cls-1 {
        fill: #fff;
      }

      .cls-1, .cls-2 {
        stroke: #e21d38;
      }

      .cls-2 {
        fill: none;
        stroke-linecap: round;
        stroke-linejoin: round;
        stroke-width: 1.02px;
      }
    </style>
  </defs>
  <g id="Layer_1-2" data-name="Layer 1">
    <circle class="cls-1" cx="30" cy="30" r="29.5"/>
    <g>
      <path class="cls-2" d="M18.84,36.5l5.54-4.97c.33-.3.75-.46,1.19-.46h10.43c.94,0,1.71.77,1.71,1.71s-.77,1.71-1.71,1.71h-6.77"/>
      <path class="cls-2" d="M38.75,32.82l5.23-5.41c.82-.85,2.19-.88,3.04-.04.85.83.86,2.2.03,3.06l-8.2,8.33c-.35.35-.82.56-1.32.56h-10.65c-.28,0-.57.11-.78.31l-2.18,2.04"/>
      <path class="cls-2" d="M24.42,29.82c-1.59-2.03-2.53-4.57-2.53-7.34,0-6.57,5.31-11.9,11.88-11.9s11.88,5.33,11.88,11.9c0,.89-.1,1.74-.28,2.58"/>
      <path class="cls-2" d="M33.77,10.58v5.2c-.37-1.03-1.36-1.76-2.51-1.76-1.49,0-2.69,1.21-2.69,2.7s1.2,2.7,2.69,2.7c1.15,0,2.13-.73,2.51-1.75v4.82"/>
      <path class="cls-2" d="M38.35,30.25c.39-.47.62-1.07.62-1.73,0-1.49-1.2-2.7-2.69-2.7-1.15,0-2.13.73-2.52,1.75v-4.82"/>
      <path class="cls-2" d="M45.66,22.47h-5.19c1.03-.37,1.76-1.36,1.76-2.52,0-1.49-1.2-2.7-2.69-2.7s-2.69,1.21-2.69,2.7c0,1.15.73,2.14,1.75,2.52h-4.81"/>
      <path class="cls-2" d="M33.77,22.49h-5.19c1.03.37,1.76,1.36,1.76,2.52,0,1.49-1.2,2.7-2.69,2.7s-2.69-1.21-2.69-2.7c0-1.15.73-2.14,1.75-2.52h-4.81"/>
      <path class="cls-2" d="M12.34,40.22l2.95-2.9c.28-.28.74-.27,1.02,0l8.02,8.03c.28.28.28.73,0,1.02l-2.92,3.05"/>
      <path class="cls-2" d="M16.55,37.56l1.15-1.15c.28-.28.74-.28,1.03,0l6.54,6.55c.28.28.28.75,0,1.03l-1.15,1.15"/>
      <path class="cls-2" d="M22.16,45.14c0,.31-.25.56-.56.56s-.56-.25-.56-.56.25-.56.56-.56.56.25.56.56Z"/>
      <path class="cls-2" d="M20.26,46.92c0,.31-.25.56-.56.56s-.56-.25-.56-.56.25-.56.56-.56.56.25.56.56Z"/>
    </g>
  </g>
</svg>