<?xml version="1.0" encoding="UTF-8"?>
<svg id="Layer_2" data-name="Layer 2" xmlns="http://www.w3.org/2000/svg" viewBox="0 0 60 60">
  <defs>
    <style>
      .cls-1 {
        fill: #fff;
      }

      .cls-1, .cls-2 {
        stroke: #e21d38;
      }

      .cls-2 {
        fill: none;
        stroke-linecap: round;
        stroke-linejoin: round;
        stroke-width: 1.36px;
      }
    </style>
  </defs>
  <g id="Layer_1-2" data-name="Layer 1">
    <circle class="cls-1" cx="30" cy="30" r="29.5"/>
    <g>
      <path class="cls-2" d="M46.8,26.41c0,7.15-5.86,12.95-13.08,12.95s-13.08-5.8-13.08-12.95,5.86-12.95,13.08-12.95,13.08,5.8,13.08,12.95Z"/>
      <path class="cls-2" d="M40.29,26.41c0,3.6-2.94,6.51-6.57,6.51s-6.57-2.91-6.57-6.51,2.94-6.51,6.57-6.51"/>
      <path class="cls-2" d="M31.03,24.48l3.41,3.39,6.23-7.77"/>
      <path class="cls-2" d="M19.88,37.72l2.43,2.4-6.01,5.95c-.64.63-1.68.63-2.32,0l-.1-.1c-.64-.63-.64-1.66,0-2.3l6.01-5.95h0Z"/>
      <path class="cls-2" d="M24.43,35.52l-3.38,3.35"/>
    </g>
  </g>
</svg>