<?xml version="1.0" encoding="UTF-8"?>
<svg id="Layer_2" data-name="Layer 2" xmlns="http://www.w3.org/2000/svg" viewBox="0 0 60 60">
  <defs>
    <style>
      .cls-1 {
        fill: #fff;
      }

      .cls-1, .cls-2 {
        stroke: #e21d38;
      }

      .cls-2 {
        fill: #e21d38;
        stroke-miterlimit: 10;
        stroke-width: .25px;
      }
    </style>
  </defs>
  <g id="Layer_1-2" data-name="Layer 1">
    <circle class="cls-1" cx="30" cy="30" r="29.5"/>
    <g>
      <path class="cls-2" d="M16.38,15.66l27.06-.02c.98.08,1.7.93,1.75,1.89v25.02c-.1.94-.78,1.73-1.75,1.82h-26.87c-.97-.09-1.65-.88-1.75-1.82v-25.08c.09-.88.69-1.62,1.56-1.8ZM15.64,17.25v3.13h28.72v-3.13s-.23-.42-.27-.46c-.22-.25-.6-.38-.93-.4h-26.25c-.48-.06-1.17.39-1.27.86ZM44.36,21.2H15.64v21.54s.23.41.27.46c.23.27.65.4.99.4h26.25c.37.11,1.2-.56,1.2-.86v-21.54Z"/>
      <path class="cls-2" d="M27.87,34.4l-2.13-7.97-2.97-.02c-.46-.1-.54-.75.12-.81.77-.07,2.26-.07,3.03,0,.15.01.31.01.41.14l2.42,8.66h6.95s1.73-5.98,1.73-5.98h-9.52c-.29,0-.56-.74.14-.83h9.83c.21-.01.48.09.51.31-.57,2.35-1.34,4.66-2.01,6.99-.06.28-.32.31-.57.33h-10.31c-.45.09-.36.81.13.76h11.89c.73.08.39.82.2.82h-1.96c.76,1.37-.62,2.9-2.06,2.24-.84-.39-1.15-1.44-.68-2.24h-2.82c.72,1.38-.7,2.93-2.12,2.23-.81-.4-1.11-1.44-.69-2.23h-2.03c-.1,0-.52-.26-.61-.35-.4-.42-.45-1.19-.07-1.64.1-.12.56-.42.68-.42h2.51ZM28.61,36.82c-.96.2-.73,1.81.44,1.53.88-.21.65-1.76-.44-1.53ZM34.17,36.82c-.78.17-.73,1.49.12,1.57,1.25.12,1.12-1.85-.12-1.57Z"/>
      <path class="cls-2" d="M19.47,28.02l4.11-.02c.63.07.55.73-.08.82-.77.11-2.98.09-3.77,0-.55-.06-.74-.5-.26-.81Z"/>
      <path class="cls-2" d="M21.12,30.01h3.76c.54.24.38.75-.2.81-.68.07-2.79.1-3.43,0-.49-.08-.64-.63-.13-.81Z"/>
      <path class="cls-2" d="M22.53,32.08c.08-.08.25-.08.36-.09.74-.06,2.38-.08,3.1,0,.61.07.52.74,0,.82-.5.08-2.66.08-3.15,0-.37-.06-.58-.46-.3-.73Z"/>
      <path class="cls-2" d="M34.38,17.99h7.89c.59-.05.74.74.14.81h-7.98c-.58-.07-.58-.65-.05-.81Z"/>
      <path class="cls-2" d="M21.32,17.24c1.78-.33,1.98,2.3.32,2.38-1.45.07-1.68-2.13-.32-2.38ZM21.29,18.13c-.31.34.21.94.6.57s-.26-.94-.6-.57Z"/>
      <path class="cls-2" d="M18.16,17.24c1.75-.3,1.93,2.31.32,2.38-1.5.07-1.72-2.14-.32-2.38ZM18.42,18.01c-.51,0-.56.81,0,.8.5,0,.51-.8,0-.8Z"/>
      <path class="cls-2" d="M24.55,17.24c1.48-.25,1.98,1.73.75,2.26-.91.4-1.85-.35-1.68-1.34.07-.41.52-.86.93-.93ZM24.52,18.71c.33.33.95-.21.57-.6s-.93.24-.57.6Z"/>
    </g>
  </g>
</svg>