<?xml version="1.0" encoding="UTF-8"?>
<svg id="Layer_2" data-name="Layer 2" xmlns="http://www.w3.org/2000/svg" viewBox="0 0 60 60">
  <defs>
    <style>
      .cls-1 {
        fill: #fff;
      }

      .cls-1, .cls-2 {
        stroke: #e21d38;
      }

      .cls-2 {
        fill: none;
        stroke-linecap: round;
        stroke-linejoin: round;
        stroke-width: .93px;
      }
    </style>
  </defs>
  <g id="Layer_1-2" data-name="Layer 1">
    <circle class="cls-1" cx="30" cy="30" r="29.5"/>
    <g>
      <path class="cls-2" d="M47.66,28.98c.02-.61-.19-1.03-.86-.98-1.79.13-2.71-.61-2.89-2.45-.06-.63-.06-.93.47-1.31,2.07-1.46,2.11-1.06.73-3.39-.53-.89-1.27-1.12-2.23-.68-.96.44-1.79.29-2.5-.45-.71-.74-.87-1.62-.47-2.63.62-1.35.61-1.38-.66-2.1-2.47-1.39-1.96-1.38-3.53.8-.31.42-.55.46-1.09.41-1.92-.19-2.79-1.09-2.65-3.04.02-.23-.48-.68-.78-.71-.8-.1-1.64-.09-2.44,0-.28.03-.74.47-.72.68.21,2.03-.84,2.86-2.71,3.08-.45.05-.69.06-.96-.33-1.71-2.38-1.09-2.3-3.8-.78-1.02.57-1.05.68-.55,1.78.51,1.11.35,2.09-.48,2.93-.19.19-.33.47-.56.59-.26.14-.65.28-.88.18-2.51-1-2.49-1-3.81,1.33-.4.71-.33,1.18.36,1.66,1.63,1.13,1.52,1.14,1.17,3.01-.19,1.02-.61,1.28-1.59,1.31-1.87.06-1.89.13-1.87,1.89.04,2.31-.49,2.18,2.31,2.39.67.05.81.33,1.06.91.71,1.66.43,2.81-1.28,3.55-.52.23-.59.72-.3,1.23.15.26.3.52.45.78,1.23,2.14.97,1.97,3.04.96.69-.34,1.04-.21,1.67.28,1.4,1.1,1.56,2.18.57,3.58-.4.57-.14,1.02.43,1.33.58.32,1.16.63,1.73.98.62.39,1.14.29,1.42-.35.71-1.59,1.76-1.84,3.35-1.22.76.3,1.03.54,1.05,1.33.08,2.09.11,2.09,2.15,2.09.33,0,.66-.02.99,0,.66.04,1.09-.21,1.02-.92-.17-1.8.66-2.6,2.42-2.82.67-.09.99-.06,1.38.5,1.43,2.06,1.05,2.02,3.33.72.92-.53,1.16-1.26.72-2.21-.43-.95-.29-1.78.43-2.5.23-.23.48-.47.67-.74.27-.39.55-.42.98-.23,2.45,1.07,2.44,1.04,3.78-1.32.41-.73.3-1.18-.39-1.65-1.63-1.13-1.54-1.14-1.17-3.01.19-1.01.62-1.28,1.6-1.3,1.88-.05,1.88-.12,1.88-1.98,0-.39-.01-.78,0-1.18h.01ZM30,41.49c-6.36,0-11.53-5.15-11.53-11.5s5.16-11.5,11.53-11.5,11.53,5.15,11.53,11.5-5.16,11.5-11.53,11.5Z"/>
      <path class="cls-2" d="M22.47,28.51l-.93-.93c-.12-.12-.12-.32,0-.44l3.4-3.39c.06-.06.14-.09.22-.09s.16.03.22.09l.93.93c.12.12.12.32,0,.44l-3.4,3.39c-.12.12-.32.12-.44,0Z"/>
      <path class="cls-2" d="M23.61,31.96c-.14-.14-.21-.32-.21-.51s.07-.37.21-.51l.22-.22c.14-.14.32-.21.51-.21s.37.07.51.21c.28.28.28.74,0,1.02l-.19.19s-.01,0-.02.02l-.03.03c-.27.25-.73.25-1-.02Z"/>
      <path class="cls-2" d="M24.19,33.83c-.14-.14-.21-.32-.21-.51s.07-.37.21-.51l.62-.62s.01-.01.02-.02l.03-.03c.13-.12.3-.19.49-.19s.37.07.51.21c.14.14.21.32.21.51s-.07.37-.21.51l-.66.66c-.27.27-.75.27-1.02,0h.01Z"/>
      <path class="cls-2" d="M26.45,35.06c-.27.27-.75.27-1.02,0-.28-.28-.28-.74,0-1.02l.51-.51c.14-.14.32-.21.51-.21s.37.07.51.21c.28.28.28.74,0,1.02l-.04.04s-.06.05-.08.08l-.39.39Z"/>
      <path class="cls-2" d="M26.88,35.34c0-.18.07-.34.17-.46l.08-.08c.13-.11.29-.17.46-.17.4,0,.72.32.72.72s-.32.72-.72.72-.72-.32-.72-.72h.01Z"/>
      <path class="cls-2" d="M26.12,25.3c.08.02.53.1.62.14l3.27,1.13"/>
      <path class="cls-2" d="M23.73,30.82c-.28-.61-.57-1.53-.47-2.2,0-.01-.16-.33-.16-.34"/>
      <path class="cls-2" d="M33.77,25.05c-.1.02-.5.17-.6.21l-5.53,2.29s-.05.02-.08.04c0,0-.03.02-.04.02-.1.06-.2.15-.26.26l-.46.8c-.1.17-.12.36-.07.55.05.19.17.34.34.44.34.2.78.08.98-.26l.3-.52c.06-.1.15-.18.25-.22l.92-.39h.02l3.16,3.07,2.11,2.1c.13.13.2.3.2.49,0,.24-.12.46-.32.59-.27.17-.64.12-.89-.13l-.35-.35s-.01,0-.02,0l-1.49-1.49c-.06-.06-.15-.06-.21,0-.06.06-.06.15,0,.21l1.51,1.51h0c.12.13.19.3.19.47,0,.2-.08.39-.24.52-.27.24-.7.21-.97-.06l-.56-.56s-.03-.02-.04-.03c0-.02-.02-.03-.03-.05l-1.04-1.04c-.06-.06-.15-.06-.21,0-.06.06-.06.15,0,.21l1.04,1.04s.03.02.04.03c0,.02.02.03.03.05.13.13.2.3.2.49,0,.2-.09.39-.24.53-.27.24-.69.21-.96-.06l-.71-.71-.53-.54c-.06-.06-.15-.06-.21,0s-.06.15,0,.21l.53.54c.13.13.2.31.2.49s-.07.36-.2.49-.3.2-.49.2c-.18,0-.36-.07-.49-.2l-.44-.44"/>
      <path class="cls-2" d="M34.44,33.02c.73-.76,1.56-1.83,1.93-2.62h0c.3-.64.64-1.54.52-2.24"/>
      <path class="cls-2" d="M34.85,23.49c.08,0,.16.03.22.09l3.4,3.39c.12.12.12.32,0,.44l-.93.93c-.12.12-.32.12-.44,0l-3.4-3.39c-.12-.12-.12-.32,0-.44l.93-.93c.06-.06.14-.09.22-.09Z"/>
    </g>
  </g>
</svg>