<?xml version="1.0" encoding="UTF-8"?>
<svg id="Layer_2" data-name="Layer 2" xmlns="http://www.w3.org/2000/svg" viewBox="0 0 60 60">
  <defs>
    <style>
      .cls-1 {
        fill: #fff;
      }

      .cls-1, .cls-2 {
        stroke: #e21d38;
      }

      .cls-2 {
        fill: none;
        stroke-linecap: round;
        stroke-linejoin: round;
        stroke-width: .89px;
      }
    </style>
  </defs>
  <g id="Layer_1-2" data-name="Layer 1">
    <circle class="cls-1" cx="30" cy="30" r="29.5"/>
    <g>
      <path class="cls-2" d="M16.54,19.29l-2.41,26.66h31.75l-2.55-26.66h-26.79Z"/>
      <path class="cls-2" d="M38.53,29.84l-1.94,4.81c-.56-1.16-2.1-1.53-2.1-1.53l.24,9.14-9.66-.11.35-8.88c-.52-.67-2.22,1.32-2.22,1.32l-1.89-4.5s2.27-2.84,5.76-3.56c.09,1.52,1.34,2.73,2.87,2.73s2.78-1.21,2.87-2.73c2.91.57,5.73,3.3,5.73,3.3Z"/>
      <path class="cls-2" d="M32.8,26.54h-.04"/>
      <path class="cls-2" d="M27.1,26.53s-.03,0-.04,0"/>
      <path class="cls-2" d="M23.51,24.45c.57-.28.95-.86.95-1.54,0-.94-.76-1.7-1.69-1.71.03-3.95,3.21-7.14,7.14-7.14s7.11,3.2,7.14,7.14c-.94,0-1.69.76-1.69,1.71,0,.68.39,1.26.95,1.54"/>
      <path class="cls-2" d="M24.47,22.91c0,.68-.39,1.26-.95,1.54-.22.11-.48.17-.74.17-.94,0-1.7-.76-1.7-1.71s.76-1.71,1.7-1.71h0c.94,0,1.69.76,1.69,1.71Z"/>
      <path class="cls-2" d="M38.75,22.91c0,.94-.76,1.71-1.7,1.71-.27,0-.52-.06-.74-.17-.57-.28-.95-.86-.95-1.54,0-.94.76-1.7,1.69-1.71h0c.94,0,1.7.76,1.7,1.71Z"/>
    </g>
  </g>
</svg>