<?xml version="1.0" encoding="UTF-8"?>
<svg id="Layer_2" data-name="Layer 2" xmlns="http://www.w3.org/2000/svg" viewBox="0 0 60 60">
  <defs>
    <style>
      .cls-1 {
        fill: #fff;
      }

      .cls-1, .cls-2 {
        stroke: #e21d38;
      }

      .cls-2 {
        fill: none;
        stroke-linecap: round;
        stroke-linejoin: round;
        stroke-width: .98px;
      }
    </style>
  </defs>
  <g id="Layer_1-2" data-name="Layer 1">
    <circle class="cls-1" cx="30" cy="30" r="29.5"/>
    <g>
      <path class="cls-2" d="M19.77,19.01h-5.09v7.51h30.63v-7.51h-5.13"/>
      <path class="cls-2" d="M14.69,26.52h7.71v1.82c0,2.14-1.73,3.88-3.85,3.88s-3.85-1.74-3.85-3.88v-1.82Z"/>
      <path class="cls-2" d="M22.33,26.52h7.71v1.82c0,2.14-1.73,3.88-3.85,3.88s-3.85-1.74-3.85-3.88v-1.82Z"/>
      <path class="cls-2" d="M29.96,26.52h7.71v1.82c0,2.14-1.73,3.88-3.85,3.88s-3.85-1.74-3.85-3.88v-1.82Z"/>
      <path class="cls-2" d="M37.61,26.52h7.71v1.82c0,2.14-1.73,3.88-3.85,3.88s-3.85-1.74-3.85-3.88v-1.82Z"/>
      <path class="cls-2" d="M16.08,31.33v14.69h27.89v-14.81"/>
      <path class="cls-2" d="M21.15,46.02v-10.4h7.61v10.4"/>
      <path class="cls-2" d="M32.57,39.58h7.6"/>
      <path class="cls-2" d="M36.37,43.12v-7.28"/>
      <path class="cls-2" d="M21.15,19.01h2.83"/>
      <path class="cls-2" d="M26.53,16.42h7.29v5.18h-7.29c-1.42,0-2.57-1.16-2.57-2.59s1.15-2.59,2.57-2.59h0Z"/>
      <path class="cls-2" d="M33.82,13.98v10.14"/>
      <path class="cls-2" d="M29.96,21.6v-5.18"/>
      <path class="cls-2" d="M37.63,15.18v7.61"/>
      <path class="cls-2" d="M33.92,18.99h3.69"/>
    </g>
  </g>
</svg>