<?xml version="1.0" encoding="UTF-8"?>
<svg id="Layer_2" data-name="Layer 2" xmlns="http://www.w3.org/2000/svg" viewBox="0 0 60 60">
  <defs>
    <style>
      .cls-1 {
        fill: #fff;
      }

      .cls-1, .cls-2 {
        stroke: #e21d38;
      }

      .cls-2 {
        fill: none;
        stroke-linecap: round;
        stroke-linejoin: round;
      }
    </style>
  </defs>
  <g id="Layer_1-2" data-name="Layer 1">
    <circle class="cls-1" cx="30" cy="30" r="29.5"/>
    <path class="cls-2" d="M19.19,46.39h-3.48v-14.17h9.61M33.58,33.34l.02,2.8.11,10.26M33.57,36.13h6.14l1.98,4.33,2.61,1.33v4.6h-3.68M22.79,46.4h14.22M37.01,36.14v4.39h4.66M20.99,44.62c-.99,0-1.81.81-1.81,1.79s.82,1.77,1.81,1.77,1.79-.79,1.79-1.77-.8-1.79-1.79-1.79ZM38.82,44.62c-.99,0-1.81.81-1.81,1.79s.82,1.77,1.81,1.77,1.79-.79,1.79-1.77-.8-1.79-1.79-1.79ZM29.96,26.93c-1.22,0-2.2.97-2.2,2.17s.98,2.15,2.2,2.15,2.18-.97,2.18-2.15-.98-2.17-2.18-2.17ZM29.96,23.52c-3.11,0-5.63,2.49-5.63,5.56,0,1.17.37,2.24.99,3.13.28.41.61.78.99,1.09l3.65,3.97,3.57-3.91.06-.06c1.22-1.01,1.98-2.53,1.98-4.22,0-3.07-2.51-5.56-5.62-5.56h.01ZM29.96,26.93c1.2,0,2.18.97,2.18,2.17s-.98,2.15-2.18,2.15-2.2-.97-2.2-2.15.98-2.17,2.2-2.17ZM29.96,26.93c-1.22,0-2.2.97-2.2,2.17s.98,2.15,2.2,2.15,2.18-.97,2.18-2.15-.98-2.17-2.18-2.17ZM33.21,20.81c-.51-1.08-1.7-1.83-3.08-1.83-1.46,0-2.7.84-3.16,2.01M35.99,18.07c-1.33-1.61-3.45-2.65-5.85-2.65s-4.66,1.1-5.98,2.8M38.76,15.42c-2.07-2.2-5.17-3.59-8.62-3.59s-6.65,1.44-8.73,3.71"/>
  </g>
</svg>