<?xml version="1.0" encoding="UTF-8"?>
<svg id="Layer_2" data-name="Layer 2" xmlns="http://www.w3.org/2000/svg" viewBox="0 0 60 60">
  <defs>
    <style>
      .cls-1 {
        fill: #e31839;
      }

      .cls-2 {
        fill: #fff;
        stroke: #e21d38;
      }
    </style>
  </defs>
  <g id="Layer_1-2" data-name="Layer 1">
    <circle class="cls-2" cx="30" cy="30" r="29.5"/>
    <g>
      <path class="cls-1" d="M26.9,15.22c1.96.13,3.52,1.7,3.63,3.66.05.92-.23,1.82-.79,2.55v1.19c1.96-1.71,2.16-4.68.45-6.63-1.71-1.96-4.68-2.16-6.63-.45-1.96,1.71-2.16,4.68-.45,6.63.14.16.29.31.45.45v-1.19c-1.3-1.7-.97-4.14.73-5.43.74-.57,1.67-.85,2.6-.79h0Z"/>
      <path class="cls-1" d="M23.57,25.08v-.94c-2.79-1.71-3.68-5.35-1.97-8.15,1.71-2.79,5.35-3.68,8.15-1.97,2.79,1.71,3.68,5.35,1.97,8.15-.49.8-1.17,1.48-1.97,1.97v.89c.06-.02.11-.02.17-.04,3.26-1.8,4.45-5.9,2.65-9.17s-5.9-4.45-9.17-2.65c-3.26,1.8-4.45,5.9-2.65,9.17.65,1.17,1.63,2.13,2.82,2.74h0Z"/>
      <path class="cls-1" d="M38.19,28.68c-.39,0-.78.09-1.13.25-.29-1.43-1.69-2.35-3.12-2.06-.29.06-.57.17-.82.32-.64-1.31-2.22-1.86-3.53-1.22-.25.12-.47.28-.67.47v-7.3c0-1.25-1.02-2.27-2.27-2.27s-2.27,1.02-2.27,2.27v13.8s0,.02,0,0l-.72-3.22c-.26-1.23-1.46-2.01-2.69-1.75-1.23.26-2.01,1.46-1.75,2.69,0,.02,0,.03.01.05l2.23,10.03c.12.52.41.98.83,1.3l3.95,3.03v2.6h.82v-2.8c0-.13-.06-.25-.16-.32l-4.11-3.16c-.27-.21-.46-.5-.53-.83l-2.23-10.03c-.17-.78.32-1.56,1.1-1.73.78-.17,1.56.32,1.73,1.1l1.53,6.87c.05.22.27.36.5.31.01,0,.02,0,.03,0,.17-.06.28-.22.28-.4v-17.52c0-.8.65-1.45,1.45-1.45s1.45.65,1.45,1.45v9.2c0,.2.13.37.33.42.22.05.44-.1.48-.32,0-.03,0-.05,0-.08,0-1.01.82-1.82,1.83-1.82.85,0,1.58.58,1.77,1.41.02.09.06.17.13.23.16.14.4.13.55-.01.73-.7,1.88-.68,2.58.05.33.34.51.79.51,1.26,0,.05,0,.1,0,.15-.02.14.04.28.14.38.16.13.38.12.53-.01.75-.68,1.9-.62,2.57.12.3.34.47.77.47,1.22v6.69c0,2.74-.93,3.93-1.75,4.98-.63.81-1.23,1.57-1.23,2.82v1.86h.82v-1.85c0-.97.46-1.56,1.05-2.32.86-1.1,1.92-2.47,1.92-5.48v-6.69c0-1.46-1.18-2.64-2.64-2.64Z"/>
    </g>
  </g>
</svg>