<?xml version="1.0" encoding="UTF-8"?>
<svg id="Layer_2" data-name="Layer 2" xmlns="http://www.w3.org/2000/svg" viewBox="0 0 60 60">
  <defs>
    <style>
      .cls-1 {
        fill: #fff;
        stroke: #e21d38;
      }

      .cls-2 {
        fill: #e21d38;
      }
    </style>
  </defs>
  <g id="Layer_1-2" data-name="Layer 1">
    <circle class="cls-1" cx="30" cy="30" r="29.5"/>
    <g>
      <path class="cls-2" d="M43.34,24.13h1.36c.83,0,1.84,1.13,1.83,1.96v14.09c-.08,1.12-.9,1.94-2.02,2.03h-18.81c-.23-.04-.4-.21-.43-.44-.04-.26-.04-1.75.05-1.94.22-.53,1.7-.18,2.2-.29l.27-1.06h-4.65v1.89c0,.83-1.13,1.84-1.96,1.83-1.82-.12-3.85.16-5.65,0-1.04-.09-1.81-.87-1.96-1.89.21-2.87-.29-6.15,0-8.97.08-.78.95-1.89,1.76-1.89h1.43v-9.94c0-.74,1.13-1.77,1.89-1.76h22.6c.88-.08,2.09.95,2.09,1.83v4.55ZM42.27,24.13v-4.49c0-.23-.51-.8-.79-.8-7.63-.04-15.29-.07-22.92.02-.27.03-.74.54-.74.79v9.8h3.49c.74,0,1.83,1.08,1.83,1.83v3.49h9.57v-8.87c0-.69,1.13-1.76,1.83-1.76h7.74ZM34.61,25.21c-.45.1-.8.48-.85.95v13.96c0,.56.48,1,1.03,1.03,3.11-.21,6.57.27,9.64,0,.59-.05.99-.43,1.03-1.03v-13.89c-.03-.52-.44-.99-.97-1.03l-9.89.02ZM15.47,30.53c-.44.07-.81.5-.85.95.18,2.79-.25,5.89,0,8.64.05.57.4.93.97,1.03,1.76-.12,3.72.16,5.45,0,.56-.05.96-.4,1.03-.97-.2-2.78.26-5.91,0-8.64-.09-.93-.87-1.13-1.69-1.02-.41.48-.2,1.52-1,1.59-.47.04-1.75.06-2.19,0-.62-.1-.58-1.39-.83-1.56-.1-.06-.73-.04-.88-.01ZM19.21,30.51h-1.73c.09.13.1.47.24.52s1.25.03,1.32-.06.08-.35.16-.47ZM32.7,35.83h-9.57v1.59h9.57v-1.59ZM28.58,39.55h2.92l-.27-1.06h-2.35s-.31,1.06-.31,1.06ZM32.7,38.48h-.4c.12.29.14.62.25.92.04.11-.04.18.15.15v-1.06ZM32.77,40.61h-6.45v.53h6.65c-.03-.08-.18-.52-.2-.53Z"/>
      <path class="cls-2" d="M15.54,39.56c.24-.05,1.66-.05,1.9,0,.52.12.52.96-.06,1.05-.28.04-1.58.05-1.84-.01-.51-.11-.51-.92,0-1.03Z"/>
      <path class="cls-2" d="M18.73,39.56c.38-.09,1.15-.09,1.21.42.09.67-.66.7-1.16.62-.57-.09-.58-.93-.06-1.05Z"/>
      <path class="cls-2" d="M34.68,25.74l9.69-.02c.33-.02.58.23.56.56v12.17c.02.33-.23.58-.56.56h-9.51c-.33.02-.58-.23-.56-.56v-12.17c-.01-.26.13-.48.38-.55ZM43.87,26.79h-8.51v11.16h8.51v-11.16Z"/>
      <path class="cls-2" d="M38.93,39.56c.78-.17.91.9.3,1.04-.78.17-.91-.9-.3-1.04Z"/>
    </g>
  </g>
</svg>