<?xml version="1.0" encoding="UTF-8"?>
<svg id="Layer_2" data-name="Layer 2" xmlns="http://www.w3.org/2000/svg" viewBox="0 0 60 60">
  <defs>
    <style>
      .cls-1 {
        fill: #e31839;
      }

      .cls-2 {
        fill: #fff;
        stroke: #e21d38;
      }
    </style>
  </defs>
  <g id="Layer_1-2" data-name="Layer 1">
    <circle class="cls-2" cx="30" cy="30" r="29.5"/>
    <g>
      <path class="cls-1" d="M46.89,25.01h.77v.77h-.77v-.77Z"/>
      <path class="cls-1" d="M45.36,25.01h.77v.77h-.77v-.77Z"/>
      <path class="cls-1" d="M40.75,25.01h.77v.77h-.77v-.77Z"/>
      <path class="cls-1" d="M42.29,25.01h.77v.77h-.77v-.77Z"/>
      <path class="cls-1" d="M39.21,25.01h.77v.77h-.77v-.77Z"/>
      <path class="cls-1" d="M43.82,25.01h.77v.77h-.77v-.77Z"/>
      <path class="cls-1" d="M37.68,25.01h.77v.77h-.77v-.77Z"/>
      <path class="cls-1" d="M37.68,21.94h.77v.77h-.77v-.77Z"/>
      <path class="cls-1" d="M37.68,23.47h.77v.77h-.77v-.77Z"/>
      <path class="cls-1" d="M37.68,17.33h.77v.77h-.77v-.77Z"/>
      <path class="cls-1" d="M37.68,20.4h.77v.77h-.77v-.77Z"/>
      <path class="cls-1" d="M37.68,18.87h.77v.77h-.77v-.77Z"/>
      <path class="cls-1" d="M37.68,15.79h.77v.77h-.77v-.77Z"/>
      <path class="cls-1" d="M45.36,15.79h.77v.77h-.77v-.77Z"/>
      <path class="cls-1" d="M42.29,15.79h.77v.77h-.77v-.77Z"/>
      <path class="cls-1" d="M40.75,15.79h.77v.77h-.77v-.77Z"/>
      <path class="cls-1" d="M39.21,15.79h.77v.77h-.77v-.77Z"/>
      <path class="cls-1" d="M43.82,15.79h.77v.77h-.77v-.77Z"/>
      <path class="cls-1" d="M46.89,15.79h.77v.77h-.77v-.77Z"/>
      <path class="cls-1" d="M46.89,18.87h.77v.77h-.77v-.77Z"/>
      <path class="cls-1" d="M46.89,21.94h.77v.77h-.77v-.77Z"/>
      <path class="cls-1" d="M46.89,20.4h.77v.77h-.77v-.77Z"/>
      <path class="cls-1" d="M46.89,23.47h.77v.77h-.77v-.77Z"/>
      <path class="cls-1" d="M46.89,17.33h.77v.77h-.77v-.77Z"/>
      <path class="cls-1" d="M16.56,20.01v.77h19.96v-.77h-19.96Z"/>
      <path class="cls-1" d="M42.67,23.86h.77v-3.85h-3.84v.77h3.07v3.08Z"/>
      <path class="cls-1" d="M16.56,31.15v6.52h26.88v-10.75h-.77v9.98h-25.34v-5.76h-.77Z"/>
      <path class="cls-1" d="M15.41,19.63c0-.42.34-.77.77-.77h20.35v-.77h-20.35c-.85,0-1.53.69-1.54,1.54v1.16h.77v-1.16Z"/>
      <path class="cls-1" d="M44.59,19.63v4.23h.77v-4.23c0-.85-.69-1.53-1.54-1.54h-4.22v.77h4.22c.42,0,.77.34.77.77Z"/>
      <path class="cls-1" d="M44.59,38.06c0,.42-.34.77-.77.77h-27.64c-.42,0-.77-.34-.77-.77v-6.91h-.77v6.91c0,.85.69,1.53,1.54,1.54h11.13v3.84h-4.22v.77h13.82v-.77h-4.22v-3.84h11.13c.85,0,1.53-.69,1.54-1.54v-11.13h-.77v11.13ZM31.92,43.44h-3.84v-3.84h3.84v3.84Z"/>
      <path class="cls-1" d="M22.32,21.94h-9.98v8.06h9.98v-8.06ZM21.55,29.23h-8.45v-6.53h8.45v6.53Z"/>
      <path class="cls-1" d="M15.03,24.24h4.61v.77h-4.61v-.77Z"/>
      <path class="cls-1" d="M15.03,26.54h3.07v.77h-3.07v-.77Z"/>
      <path class="cls-1" d="M30,34.22c2.97,0,5.38-2.41,5.38-5.37s-2.41-5.38-5.38-5.38-5.38,2.41-5.38,5.38c0,2.97,2.41,5.37,5.38,5.37ZM27.32,32.59c.06-1.48,1.3-2.64,2.78-2.58,1.4.05,2.53,1.18,2.58,2.58-1.6,1.16-3.76,1.16-5.36,0ZM28.85,28.08c0-.64.52-1.15,1.15-1.15s1.15.52,1.15,1.15-.52,1.15-1.15,1.15-1.15-.52-1.15-1.15ZM30,24.24c2.54,0,4.6,2.05,4.61,4.59,0,1.16-.44,2.28-1.23,3.14-.24-1.12-1.02-2.05-2.08-2.48.78-.72.83-1.93.12-2.71-.72-.78-1.93-.83-2.71-.12-.78.72-.84,1.93-.12,2.71.04.04.08.08.12.12-1.06.43-1.84,1.36-2.08,2.48-1.73-1.86-1.62-4.77.24-6.5.85-.79,1.97-1.23,3.14-1.23Z"/>
      <path class="cls-1" d="M40.65,32.15s-.03-.06-.1-.1l-3.84-1.29h-.03c-.07,0-.12.06-.13.13v.03l1.26,3.87c.03.06.09.1.16.1.03,0,.06-.03.1-.1l.48-1.32s0,0,0,0t0,0l1.51,1.51.68-.68-1.51-1.51s0,0,0,0h0s1.32-.48,1.32-.48c.06-.03.1-.09.1-.16Z"/>
    </g>
  </g>
</svg>