<?xml version="1.0" encoding="UTF-8"?>
<svg id="Layer_2" data-name="Layer 2" xmlns="http://www.w3.org/2000/svg" viewBox="0 0 60 60">
  <defs>
    <style>
      .cls-1 {
        fill: #fff;
        stroke: #e21d38;
      }

      .cls-2 {
        fill: #e21d38;
      }
    </style>
  </defs>
  <g id="Layer_1-2" data-name="Layer 1">
    <circle class="cls-1" cx="30" cy="30" r="29.5"/>
    <g>
      <path class="cls-2" d="M15.93,21.78v16.12c0,1.69,1.37,3.06,3.06,3.06h10.59v4.83h-5.04c-.23,0-.42.19-.42.42s.19.42.42.42h11.22c.23,0,.42-.19.42-.42s-.19-.42-.42-.42h-5.35v-4.83h10.59c1.69,0,3.06-1.37,3.06-3.06v-16.12c0-1.69-1.37-3.06-3.06-3.06h-2.67v-2.78c0-1.41-1.14-2.55-2.55-2.55h-8.31s-.03,0-.04,0c-.01,0-.02,0-.03,0,0,0,0,0-.01,0-.01,0-.02,0-.03,0h0s-.02,0-.03.01c0,0,0,0,0,0-.01,0-.02,0-.03.01h0s-.02.01-.03.02c0,0,0,0,0,0,0,0-.02.01-.03.02,0,0,0,0,0,0-.01,0-.02.02-.03.03l-5.21,5.21h-2.98c-1.69,0-3.06,1.37-3.06,3.06ZM18.99,19.56h2.67v15.59h-4.9v-13.37c0-1.23,1-2.22,2.22-2.22ZM41.01,40.12h-22.02c-1.23,0-2.22-1-2.22-2.22v-1.91h26.47v1.91c0,1.23-1,2.22-2.22,2.22ZM41.01,19.56c1.23,0,2.22,1,2.22,2.22v13.37h-4.9v-15.59h2.67ZM37.5,15.94v19.21h-15.01v-15.53h2.85c1.41,0,2.55-1.14,2.55-2.55v-2.85h7.89c.95,0,1.72.77,1.72,1.72ZM23.09,18.78l3.97-3.97v2.26c0,.95-.77,1.72-1.72,1.72h-2.26Z"/>
      <path class="cls-2" d="M32.08,23.67h4.17c.23,0,.42-.19.42-.42s-.19-.42-.42-.42h-4.17c-.23,0-.42.19-.42.42s.19.42.42.42Z"/>
      <path class="cls-2" d="M28.61,23.67h1.82c.23,0,.42-.19.42-.42s-.19-.42-.42-.42h-1.82c-.23,0-.42.19-.42.42s.19.42.42.42Z"/>
      <path class="cls-2" d="M36.26,25.85h-1.76c-.23,0-.42.19-.42.42s.19.42.42.42h1.76c.23,0,.42-.19.42-.42s-.19-.42-.42-.42Z"/>
      <path class="cls-2" d="M32.81,26.69c.23,0,.42-.19.42-.42s-.19-.42-.42-.42h-8.2c-.23,0-.42.19-.42.42s.19.42.42.42h8.2Z"/>
      <path class="cls-2" d="M23.88,29.7h6.12c.23,0,.42-.19.42-.42s-.19-.42-.42-.42h-6.12c-.23,0-.42.19-.42.42s.19.42.42.42Z"/>
      <path class="cls-2" d="M33.46,28.86h-1.86c-.23,0-.42.19-.42.42s.19.42.42.42h1.86c.23,0,.42-.19.42-.42s-.19-.42-.42-.42Z"/>
      <path class="cls-2" d="M36.26,28.86h-1.18c-.23,0-.42.19-.42.42s.19.42.42.42h1.18c.23,0,.42-.19.42-.42s-.19-.42-.42-.42Z"/>
      <path class="cls-2" d="M25.83,31.88h-1.95c-.23,0-.42.19-.42.42s.19.42.42.42h1.95c.23,0,.42-.19.42-.42s-.19-.42-.42-.42Z"/>
      <path class="cls-2" d="M33.46,31.88h-6.05c-.23,0-.42.19-.42.42s.19.42.42.42h6.05c.23,0,.42-.19.42-.42s-.19-.42-.42-.42Z"/>
      <path class="cls-2" d="M36.26,31.88h-1.18c-.23,0-.42.19-.42.42s.19.42.42.42h1.18c.23,0,.42-.19.42-.42s-.19-.42-.42-.42Z"/>
    </g>
  </g>
</svg>